<?xml version="1.0" encoding="UTF-8"?>
<svg id="Layer_2" data-name="Layer 2" xmlns="http://www.w3.org/2000/svg" viewBox="0 0 830.8 418.34">
  <g id="Layer_1" data-name="Layer 1">
    <g>
      <g>
        <path d="M403.81,209.18c-4.01-4.8-9.09-8.28-15.33-10.48-6.21-2.2-12.67-3.29-19.35-3.29-12.83,0-26.62,2-41.39,6.01-14.76,4-29.57,9.62-44.45,16.84-13.1,6.38-25.68,13.77-37.78,22.18h-.02c-14.96-2.55-30.29-3.78-46.02-3.78-19.71,0-37.72,1.61-54.05,4.82-16.36,3.24-30.52,7.79-42.49,13.67-11.97,5.88-21.22,12.93-27.73,21.09-.22.27-.4.52-.58.77-6.1,7.99-9.16,16.66-9.16,26.11v.2c.32,4.67,1.62,9.35,3.96,13.97,1.64,3.29,3.71,6.53,6.19,9.67v.03c3.29,4.23,7.29,8.33,12.02,12.31,8.28,6.97,18.21,13.28,29.77,18.91,11.57,5.61,24.19,10.24,37.92,13.87,4.61,1.21,9.27,2.32,13.97,3.29,1.28.27,2.57.52,3.85.77.07.22.14.44.2.64.02.1.02.15.07.25,2.32,7.59,6.08,14.54,11.3,20.84,5.18,6.28,12.29,11.27,21.29,14.96,9.02,3.68,20.21,5.54,33.58,5.54,10.6,0,21.31-1.34,32.18-4.01,1.06-.25,2.12-.54,3.17-.84,1.8-.45,3.6-.99,5.42-1.53,8.03-2.47,16.14-5.64,24.28-9.52,11.05-5.27,22.05-11.82,32.99-19.68,9.7-6.95,19.38-14.78,29.05-23.56,1.26-1.16,2.54-2.35,3.83-3.54l3.98-3.76,2.05-1.9.67-.62,5.56-5.27h-2.68c-.14.1-.27.17-.4.27l-.63.57-3.92,3.63-2.05,1.9-2.52,2.32-2.56,2.37c-10.96,10.04-21.83,18.89-32.61,26.5-10.76,7.62-21.49,13.94-32.16,18.96-9.23,4.35-18.41,7.74-27.55,10.24-1.46.37-2.9.74-4.36,1.09-.16.05-.32.1-.47.1-10.42,2.45-20.86,3.66-31.28,3.66-12.06,0-22.19-1.88-30.36-5.64-8.19-3.78-14.31-9.35-18.41-16.74-2.21-4.01-3.8-8.5-4.82-13.52.34.05.65.05.97.05,3.49,0,7.02-.07,10.53-.25,5.9-.3,11.84-.82,17.78-1.58,6.46-.84,12.96-1.95,19.47-3.36,7.63-1.63,15.15-3.54,22.57-5.74,1.26-.37,2.54-.77,3.78-1.16,6.53-2,12.94-4.23,19.29-6.68.38-.15.79-.3,1.17-.44,15.15-5.88,29.26-12.54,42.35-19.9,8.06-4.55,15.53-9.25,22.39-14.07.74-.52,1.51-1.06,2.27-1.61,2.32-1.68,4.57-3.34,6.73-5.04.94-.82,1.89-1.63,2.81-2.47.05-.02.09-.07.14-.12,4.68-4.18,9.11-8.48,13.35-12.96.9-.94,1.78-1.9,2.65-2.87,3.58-3.88,6.98-7.89,10.22-11.97,7.79-9.91,13.97-20.08,18.52-30.53,4.54-10.43,6.82-20.62,6.82-30.51,0-8.18-2-14.66-5.99-19.46ZM179.13,313.46c-6.14,13.05-9.2,26.4-9.2,40.08,0,6.7.81,13.25,2.43,19.68-2.54-.49-5.04-1.04-7.54-1.61-2.81-.64-5.58-1.33-8.33-2.05-1.62-.42-3.26-.89-4.86-1.34-15.77-4.55-30-10.43-42.64-17.65-6.59-3.78-12.47-7.74-17.53-11.89-4.95-3.98-9.18-8.13-12.71-12.49-6.8-6.63-10.22-14.27-10.22-22.84,0-9.74,3.33-18.54,10.04-26.4,5.09-5.98,11.68-11.27,19.8-15.92,2.59-1.48,5.31-2.89,8.19-4.23,11.97-5.59,25.9-9.89,41.79-12.98,15.89-3.04,32.92-4.57,51.13-4.57,14.63,0,28.94,1.11,42.98,3.34-.61.4-1.19.82-1.78,1.24-8.03,5.84-15.57,12.02-22.57,18.52-.81.74-1.62,1.48-2.41,2.25-3.96,3.78-7.74,7.64-11.37,11.64-10.67,11.79-19.08,24.2-25.2,37.23ZM400.05,258.2c-4.46,10.14-10.51,20.08-18.12,29.82-3.71,4.77-7.7,9.39-11.9,13.92-.99,1.06-1.98,2.13-3.02,3.16-3.47,3.58-7.09,7.07-10.85,10.48-1.71,1.53-3.42,3.04-5.15,4.52-1.48,1.11-3.02,2.25-4.57,3.36-.77.54-1.53,1.09-2.3,1.61-6.91,4.82-14.45,9.49-22.62,14.04-13.01,7.22-26.94,13.72-41.79,19.43-.07.03-.11.05-.18.07l-9.27,3.39c-2.41.86-4.82,1.66-7.22,2.42-1.33.44-2.65.84-3.98,1.24-8.28,2.55-16.67,4.72-25.18,6.55-11.88,2.55-23.61,4.15-35.17,4.77-4.52-.4-9.02.12-13.46-.52-.38-2.97-.56-7.17-.56-10.46,0-13.18,3.04-26.48,9.18-39.83,6.12-13.35,14.45-26.28,24.93-38.77,5.13-6.13,10.55-12.02,16.32-17.7.74-.72,1.48-1.46,2.25-2.2,5.33-5.17,10.96-10.14,16.81-14.98,2.57-2.1,5.15-4.15,7.74-6.13,18.48,4.33,35.74,10.16,51.74,17.46,16.72,7.61,31.21,16.29,43.46,26.03l1.96-2.13c-12.63-9.74-27.34-18.44-44.15-26.16-15.6-7.12-32.36-12.88-50.34-17.26,9.83-7.39,19.94-14.07,30.27-19.98,14.04-8.01,27.63-14.29,40.82-18.84,13.19-4.57,24.98-6.85,35.4-6.85,6.3,0,12.15.91,17.53,2.72,5.38,1.8,9.77,4.92,13.1,9.3,3.35,4.4,5.02,10.36,5.02,17.92,0,9.59-2.23,19.43-6.68,29.57Z"/>
        <g>
          <path d="M438.13,355.71l-2.09,2.48c-.07.07-.11.14-.16.2-5.87,7.18-10.71,13.59-14.49,19.24,5.54-5.58,11.23-11.72,17.08-18.41l3.17-3.51h-3.51Z"/>
          <path d="M434.26,360.28l1.62-1.89c-5.87,7.18-10.71,13.59-14.49,19.24-10.17,10.33-19.78,18.79-28.81,25.41-13.97,10.19-25.74,15.3-35.38,15.3-8.19,0-12.31-4.57-12.31-13.73,0-5.54,1.21-11.36,3.62-17.49,7.31-6.75,13.3-14.24,17.31-22.05l5.56-4.79h-2.68c-.14.09-.27.16-.4.25l-.63.52c.86-1.98,1.55-4.01,2.09-6.01l115.76-130.75h15.17l-111.46,125.8c-13.84,15.73-23.52,27.86-29.01,36.41-5.51,8.55-8.28,15.78-8.28,21.63,0,5.4,2.12,8.1,6.32,8.1,7.99,0,18.84-5,32.56-14.94,13.71-9.99,28.18-23.65,43.43-41Z"/>
          <path d="M368.71,360.28h2.68l-5.56,4.79c.67-1.33,1.31-2.68,1.84-4.03l.63-.52c.14-.09.27-.16.4-.25Z"/>
          <path d="M369.76,355.04c-.54,2-1.24,4.03-2.09,6.01-.54,1.35-1.17,2.7-1.84,4.03-4.01,7.81-9.99,15.3-17.31,22.05,1.66-4.23,3.94-8.62,6.77-13.12,1.19-1.91,2.5-3.85,3.89-5.81,2.88-4.05,6.21-8.21,9.99-12.49l.59-.68Z"/>
          <path d="M550.47,359.38s-.05.04-.05.04l-.79.86c-9.16,10.1-18.48,19.35-27.97,27.79-9.47,8.46-18.12,15.26-25.83,20.41-7.76,5.15-13.73,7.74-17.96,7.74-3.51,0-5.27-2.34-5.27-7.04,0-3.76,2.23-8.73,6.68-14.94,4.43-6.21,11.61-14.6,21.45-25.16,9.86-10.55,23-24.03,39.4-40.46,5.4-5.38,10.24-9.68,14.61-12.83,4.34-3.17,8.01-5.56,11.07-7.22h-27.43c-15.06,15.78-27.59,29.62-37.65,41.52-.02.05-.07.09-.07.11-6.44,7.61-11.84,14.45-16.23,20.5-.09.11-.16.23-.25.32-11.23,15.6-16.88,27.86-16.88,36.77,0,7.02,3.4,10.55,10.22,10.55,4.68,0,11.12-2.54,19.33-7.56,8.21-5.04,17.31-12.02,27.28-20.93,3.6-3.22,7.2-6.59,10.8-10.15l.02-.02c6.39-6.3,12.8-13.1,19.24-20.46l3.17-3.51h-3.51l-3.4,3.67ZM500.67,350.2c-11,12.38-22.01,23.61-32.99,33.67-11.03,10.08-20.88,18-29.55,23.74-8.69,5.74-15.24,8.62-19.71,8.62-3.74,0-5.63-2.23-5.63-6.68,0-2.81,2.41-7.67,7.22-14.61,4.79-6.91,11.03-14.72,18.66-23.38,7.61-8.69,15.75-17.28,24.42-25.86,8.69-8.57,17.01-16.25,24.98-23.04,7.99-6.8,14.56-11.5,19.71-14.09h-27.43c-18.07,19.24-32.25,35.08-42.58,47.51-.58.72-1.17,1.42-1.73,2.12-.07.07-.11.14-.16.2-5.87,7.18-10.71,13.59-14.49,19.24-2.23,3.33-4.1,6.41-5.6,9.23-4.32,8.08-6.5,15.17-6.5,21.27,0,3.06.76,5.51,2.3,7.4,1.53,1.87,3.69,2.81,6.5,2.81,7.04,0,18.12-5.99,33.24-17.96,9.9-7.83,20.95-17.71,33.13-29.68,6.39-6.28,13.12-13.16,20.16-20.61h-3.87s-.07.09-.07.11Z"/>
          <path d="M553.87,355.71l-3.4,3.67s-.05.04-.05.04c-6.84,8.03-11.99,14.79-15.46,20.25,6.39-6.3,12.8-13.1,19.24-20.46l3.17-3.51h-3.51ZM549.46,377.18c3.35-4.43,7.47-9.5,12.33-15.24-8.21,9.11-14.79,17.28-19.71,24.55-5.99,8.8-8.98,16-8.98,21.63,0,4.73,2.23,7.67,6.64,8.89.2.07.41.11.63.16.27.07.58.11.88.16.49.09,1.01.16,1.53.2.27.02.56.05.85.07.45.02.94.05,1.44.05l-3.87-1.42c-4.45,0-6.71-2.7-6.71-8.1,0-3.74,1.15-8.01,3.38-12.83,2.2-4.82,6.08-10.85,11.59-18.12ZM646.72,302.6c-6.1,0-13.48,2.34-22.14,7.02-8.69,4.7-18,11.05-27.99,18.99-9.95,7.99-19.74,17.15-29.37,27.45-1.89,2-3.67,3.96-5.42,5.87-8.21,9.11-14.79,17.28-19.71,24.55-5.99,8.8-8.98,16-8.98,21.63,0,4.73,2.23,7.67,6.64,8.89.2.07.41.11.63.16.27.07.58.11.88.16.49.09,1.01.16,1.53.2.27.02.56.05.85.07.45.02.94.05,1.44.05,9.83,0,20.23-2.12,31.12-6.35,10.91-4.23,21.45-9.9,31.66-17.06,10.19-7.16,19.4-15.12,27.61-23.92,8.21-8.8,14.78-17.82,19.69-27.09,4.93-9.25,7.38-18.12,7.38-26.55,0-9.38-5.27-14.07-15.82-14.07ZM648.84,328.46c-3.98,6.91-9.38,14.25-16.18,21.99s-14.25,15.42-22.32,23.04c-8.1,7.63-16.32,14.58-24.64,20.93-8.33,6.32-16.07,11.36-23.2,15.12-7.18,3.76-13.19,5.63-18.14,5.63-5.63,0-8.44-2.45-8.44-7.38,0-5.4,2.7-12.2,8.1-20.41,5.4-8.21,13.71-18.05,24.98-29.55,16.63-16.88,31.82-29.91,45.55-39.04,13.73-9.16,24.33-13.73,31.84-13.73,5.63,0,8.44,2.12,8.44,6.35,0,4.46-2,10.15-5.99,17.06Z"/>
          <path d="M683.61,224.29l-111.46,125.8c-3.76,4.23-7.2,8.19-10.35,11.86-8.21,9.11-14.79,17.28-19.71,24.55-5.99,8.8-8.98,16-8.98,21.63,0,4.73,2.23,7.67,6.64,8.89-2.93-.72-5.38-2.12-7.34-4.14-3.04-3.15-4.57-7.45-4.57-12.83s1.82-11.25,5.45-17.6c.49-.88,1.06-1.8,1.66-2.75l.02-.02c6.39-6.3,12.8-13.1,19.24-20.46l3.17-3.51h-3.51l-3.4,3.67c.54-.63,1.08-1.26,1.64-1.91l117.07-133.18h14.43Z"/>
        </g>
      </g>
      <g>
        <path d="M15.58,3.53h89.96l16.17,205.79h-52.92l-1.47-27.63h-14.11l-1.47,27.63H0L15.58,3.53ZM65.56,144.06l-5-101.43h-.59l-5,101.43h10.58Z"/>
        <path d="M117.6,3.53h53.21l5.29,162.58h.59L182.57,3.53h51.74l-15.58,205.79h-85.26L117.6,3.53Z"/>
        <path d="M235.78,164.05V48.8c0-36.45,14.99-48.8,57.03-48.8s57.03,12.35,57.03,48.8v115.24c0,36.46-14.99,48.8-57.03,48.8s-57.03-12.35-57.03-48.8ZM292.81,169.93c2.94,0,4.12-1.76,4.12-5.59V48.51c0-3.82-1.18-5.59-4.12-5.59s-4.12,1.76-4.12,5.59v115.83c0,3.82,1.18,5.59,4.12,5.59Z"/>
        <path d="M356.31,164.05V48.8c0-36.45,14.99-48.8,57.03-48.8s57.03,12.35,57.03,48.8v39.98h-52.92v-40.28c0-3.82-1.18-5.59-4.12-5.59s-4.12,1.76-4.12,5.59v115.83c0,3.82,1.18,5.59,4.12,5.59s4.12-1.76,4.12-5.59v-47.33h52.92v47.04c0,36.46-14.99,48.8-57.03,48.8s-57.03-12.35-57.03-48.8Z"/>
        <path d="M488.02,3.53h89.96l16.17,205.79h-52.92l-1.47-27.63h-14.11l-1.47,27.63h-51.74L488.02,3.53ZM537.99,144.06l-5-101.43h-.59l-5,101.43h10.58Z"/>
        <path d="M597.67,3.53h56.15c40.87,0,56.45,8.82,56.45,45.27v115.24c0,36.46-15.58,45.27-56.45,45.27h-56.15V3.53ZM653.82,169.93c2.94,0,4.12-1.76,4.12-5.59V48.51c0-3.82-1.18-5.59-4.12-5.59h-3.82v127h3.82Z"/>
        <path d="M716.73,164.05V48.8c0-36.45,14.99-48.8,57.03-48.8s57.03,12.35,57.03,48.8v115.24c0,36.46-14.99,48.8-57.03,48.8s-57.03-12.35-57.03-48.8ZM773.77,169.93c2.94,0,4.12-1.76,4.12-5.59V48.51c0-3.82-1.18-5.59-4.12-5.59s-4.12,1.76-4.12,5.59v115.83c0,3.82,1.18,5.59,4.12,5.59Z"/>
      </g>
    </g>
  </g>
</svg>